# xmcd CD Database Entry
#
# Track frame offsets:
# 150
# 15508
# 35349
# 51462
# 67970
# 85494
# 98632
# 112113
# 124761
# 143796
# 159127
#
# Disc length: 2372 seconds
#
# Revision: 1
# Processed by: cddbd v1.5.2PL0 Copyright (c) Steve Scherf et al.
# Submitted via: RSJCDWriter_freedb_lib_OS/2 1.03
#
DISCID=8b09420b
DTITLE=Jewel - Sweet And Wild
DYEAR=1900
DGENRE=country
TTITLE0=No Good In Goodbye
TTITLE1=I Love You Forever
TTITLE2=Fading
TTITLE3=What You Are
TTITLE4=Bad As It Gets
TTITLE5=Summer Home In Your Arms
TTITLE6=Stay Here Forever
TTITLE7=No More Heartaches
TTITLE8=One True Thing
TTITLE9=Ten
TTITLE10=Satisfied
EXTD=2010
EXTT0=
EXTT1=
EXTT2=
EXTT3=
EXTT4=
EXTT5=
EXTT6=
EXTT7=
EXTT8=
EXTT9=
EXTT10=
PLAYORDER=
